<mxfile host="Electron" modified="2024-03-01T19:04:59.553Z" agent="Mozilla/5.0 (Windows NT 10.0; Win64; x64) AppleWebKit/537.36 (KHTML, like Gecko) draw.io/22.1.16 Chrome/120.0.6099.109 Electron/28.1.0 Safari/537.36" etag="Dv0kT3yxN-c6tKXBY9Iw" version="22.1.16" type="device">
  <diagram name="Page-1" id="1nsFzZwZqvBiQVmtA_--">
    <mxGraphModel dx="1084" dy="951" grid="1" gridSize="10" guides="1" tooltips="1" connect="1" arrows="1" fold="1" page="1" pageScale="1" pageWidth="850" pageHeight="1100" math="0" shadow="0">
      <root>
        <mxCell id="0" />
        <mxCell id="1" parent="0" />
        <mxCell id="LI2dPMh4kYfaXZQKP3Ya-19" value="&amp;nbsp;refs == 0&amp;nbsp;" style="edgeStyle=orthogonalEdgeStyle;rounded=0;orthogonalLoop=1;jettySize=auto;html=1;entryX=0.5;entryY=0;entryDx=0;entryDy=0;" edge="1" parent="1" source="LI2dPMh4kYfaXZQKP3Ya-2" target="LI2dPMh4kYfaXZQKP3Ya-5">
          <mxGeometry relative="1" as="geometry">
            <Array as="points">
              <mxPoint x="469" y="220" />
              <mxPoint x="240" y="220" />
            </Array>
          </mxGeometry>
        </mxCell>
        <mxCell id="LI2dPMh4kYfaXZQKP3Ya-2" value="" style="html=1;verticalLabelPosition=bottom;align=center;labelBackgroundColor=#ffffff;verticalAlign=top;strokeWidth=2;strokeColor=#000000;shadow=0;dashed=0;shape=mxgraph.ios7.icons.reload;" vertex="1" parent="1">
          <mxGeometry x="340" y="250" width="257.78" height="290" as="geometry" />
        </mxCell>
        <mxCell id="LI2dPMh4kYfaXZQKP3Ya-22" style="edgeStyle=orthogonalEdgeStyle;rounded=0;orthogonalLoop=1;jettySize=auto;html=1;entryX=0;entryY=0.5;entryDx=0;entryDy=0;" edge="1" parent="1" source="LI2dPMh4kYfaXZQKP3Ya-4" target="LI2dPMh4kYfaXZQKP3Ya-21">
          <mxGeometry relative="1" as="geometry" />
        </mxCell>
        <mxCell id="LI2dPMh4kYfaXZQKP3Ya-4" value="Execute &lt;b&gt;&lt;font style=&quot;font-size: 16px;&quot;&gt;I/O&lt;/font&gt;&lt;/b&gt;-related Callbacks that were deferred" style="rounded=0;whiteSpace=wrap;html=1;fillColor=#fff2cc;strokeColor=#d6b656;" vertex="1" parent="1">
          <mxGeometry x="690" y="390" width="180" height="50" as="geometry" />
        </mxCell>
        <mxCell id="LI2dPMh4kYfaXZQKP3Ya-5" value="process.exit" style="rounded=0;whiteSpace=wrap;html=1;fillColor=#f8cecc;strokeColor=#b85450;dashed=1;" vertex="1" parent="1">
          <mxGeometry x="150" y="240" width="180" height="50" as="geometry" />
        </mxCell>
        <mxCell id="LI2dPMh4kYfaXZQKP3Ya-6" value="Pending Callbacks" style="rounded=0;whiteSpace=wrap;html=1;fillColor=#fad7ac;strokeColor=#b46504;fontSize=14;fontStyle=1" vertex="1" parent="1">
          <mxGeometry x="690" y="330" width="180" height="50" as="geometry" />
        </mxCell>
        <mxCell id="LI2dPMh4kYfaXZQKP3Ya-7" value="Execute setTimeout, setInterval Callbacks" style="rounded=0;whiteSpace=wrap;html=1;fillColor=#fff2cc;strokeColor=#d6b656;" vertex="1" parent="1">
          <mxGeometry x="640" y="230" width="180" height="50" as="geometry" />
        </mxCell>
        <mxCell id="LI2dPMh4kYfaXZQKP3Ya-8" value="Timers" style="rounded=0;whiteSpace=wrap;html=1;fillColor=#fad7ac;strokeColor=#b46504;fontSize=14;fontStyle=1" vertex="1" parent="1">
          <mxGeometry x="640" y="170" width="180" height="50" as="geometry" />
        </mxCell>
        <mxCell id="LI2dPMh4kYfaXZQKP3Ya-15" value="Or defer execution" style="edgeStyle=orthogonalEdgeStyle;rounded=0;orthogonalLoop=1;jettySize=auto;html=1;entryX=1;entryY=0.5;entryDx=0;entryDy=0;dashed=1;strokeWidth=2;" edge="1" parent="1" source="LI2dPMh4kYfaXZQKP3Ya-9" target="LI2dPMh4kYfaXZQKP3Ya-6">
          <mxGeometry relative="1" as="geometry">
            <Array as="points">
              <mxPoint x="890" y="605" />
              <mxPoint x="890" y="355" />
            </Array>
          </mxGeometry>
        </mxCell>
        <mxCell id="LI2dPMh4kYfaXZQKP3Ya-9" value="Retrieve new I/O events, &lt;br&gt;execute their callbacks" style="rounded=0;whiteSpace=wrap;html=1;fillColor=#fff2cc;strokeColor=#d6b656;" vertex="1" parent="1">
          <mxGeometry x="640" y="580" width="180" height="50" as="geometry" />
        </mxCell>
        <mxCell id="LI2dPMh4kYfaXZQKP3Ya-16" value="Jump to Timer Execution" style="edgeStyle=orthogonalEdgeStyle;rounded=0;orthogonalLoop=1;jettySize=auto;html=1;entryX=0;entryY=0.5;entryDx=0;entryDy=0;dashed=1;strokeWidth=2;" edge="1" parent="1" source="LI2dPMh4kYfaXZQKP3Ya-10" target="LI2dPMh4kYfaXZQKP3Ya-8">
          <mxGeometry relative="1" as="geometry">
            <Array as="points">
              <mxPoint x="610" y="545" />
              <mxPoint x="610" y="195" />
            </Array>
          </mxGeometry>
        </mxCell>
        <mxCell id="LI2dPMh4kYfaXZQKP3Ya-10" value="Poll" style="rounded=0;whiteSpace=wrap;html=1;fillColor=#fad7ac;strokeColor=#b46504;fontSize=14;fontStyle=1" vertex="1" parent="1">
          <mxGeometry x="640" y="520" width="180" height="50" as="geometry" />
        </mxCell>
        <mxCell id="LI2dPMh4kYfaXZQKP3Ya-11" value="Execute setImmediate() callbacks" style="rounded=0;whiteSpace=wrap;html=1;fillColor=#fff2cc;strokeColor=#d6b656;" vertex="1" parent="1">
          <mxGeometry x="200" y="580" width="180" height="50" as="geometry" />
        </mxCell>
        <mxCell id="LI2dPMh4kYfaXZQKP3Ya-12" value="Check" style="rounded=0;whiteSpace=wrap;html=1;fillColor=#fad7ac;strokeColor=#b46504;fontSize=14;fontStyle=1" vertex="1" parent="1">
          <mxGeometry x="200" y="520" width="180" height="50" as="geometry" />
        </mxCell>
        <mxCell id="LI2dPMh4kYfaXZQKP3Ya-13" value="Execute all ‘close’ event callbacks" style="rounded=0;whiteSpace=wrap;html=1;fillColor=#fff2cc;strokeColor=#d6b656;" vertex="1" parent="1">
          <mxGeometry x="140" y="390" width="180" height="50" as="geometry" />
        </mxCell>
        <mxCell id="LI2dPMh4kYfaXZQKP3Ya-14" value="Close Callbacks" style="rounded=0;whiteSpace=wrap;html=1;fillColor=#fad7ac;strokeColor=#b46504;fontSize=14;fontStyle=1" vertex="1" parent="1">
          <mxGeometry x="140" y="330" width="180" height="50" as="geometry" />
        </mxCell>
        <mxCell id="LI2dPMh4kYfaXZQKP3Ya-20" value="&lt;b&gt;&lt;font style=&quot;font-size: 14px;&quot;&gt;Input &amp;amp; Output&lt;/font&gt;&lt;/b&gt;&lt;br&gt;Disk &amp;amp; Network&lt;br&gt;Operations (~Blocking &lt;br&gt;Operations)" style="whiteSpace=wrap;html=1;" vertex="1" parent="1">
          <mxGeometry x="970" y="430" width="140" height="80" as="geometry" />
        </mxCell>
        <mxCell id="LI2dPMh4kYfaXZQKP3Ya-21" value="&lt;span style=&quot;font-size: 16px;&quot;&gt;&lt;b style=&quot;font-size: 16px;&quot;&gt;I/O&lt;/b&gt;&lt;/span&gt;" style="whiteSpace=wrap;html=1;fillColor=#fff2cc;strokeColor=#d6b656;fontSize=16;" vertex="1" parent="1">
          <mxGeometry x="970" y="405" width="140" height="20" as="geometry" />
        </mxCell>
      </root>
    </mxGraphModel>
  </diagram>
</mxfile>
